<mxfile host="app.diagrams.net" modified="2024-04-09T09:36:12.444Z" agent="Mozilla/5.0 (Windows NT 10.0; Win64; x64) AppleWebKit/537.36 (KHTML, like Gecko) Chrome/123.0.0.0 Safari/537.36 Edg/123.0.0.0" etag="iKD5UTGIcTRmdDaPpXKG" version="24.2.3" type="device">
  <diagram name="Page-1" id="oR7-wZCp6eCO63patY0i">
    <mxGraphModel dx="4231" dy="3565" grid="1" gridSize="10" guides="1" tooltips="1" connect="1" arrows="1" fold="1" page="1" pageScale="1" pageWidth="1169" pageHeight="827" background="none" math="0" shadow="0">
      <root>
        <mxCell id="0" />
        <mxCell id="1" parent="0" />
        <mxCell id="Qk3WT5OZLYkF9n8luIL4-1" value="DriveControler" style="swimlane;fontStyle=1;align=center;verticalAlign=top;childLayout=stackLayout;horizontal=1;startSize=25.333333333333332;horizontalStack=0;resizeParent=1;resizeParentMax=0;resizeLast=0;collapsible=0;marginBottom=0;rounded=0;labelBackgroundColor=none;" vertex="1" parent="1">
          <mxGeometry x="1970" y="1171.67" width="410" height="233.33333333333331" as="geometry" />
        </mxCell>
        <mxCell id="Qk3WT5OZLYkF9n8luIL4-2" value="- PIDMotor *motorL" style="text;strokeColor=none;fillColor=none;align=left;verticalAlign=top;spacingLeft=4;spacingRight=4;overflow=hidden;rotatable=0;points=[[0,0.5],[1,0.5]];portConstraint=eastwest;rounded=0;labelBackgroundColor=none;" vertex="1" parent="Qk3WT5OZLYkF9n8luIL4-1">
          <mxGeometry y="25.333333333333332" width="410" height="25" as="geometry" />
        </mxCell>
        <mxCell id="Qk3WT5OZLYkF9n8luIL4-3" value="- PIDMotor *motorR" style="text;strokeColor=none;fillColor=none;align=left;verticalAlign=top;spacingLeft=4;spacingRight=4;overflow=hidden;rotatable=0;points=[[0,0.5],[1,0.5]];portConstraint=eastwest;rounded=0;labelBackgroundColor=none;" vertex="1" parent="Qk3WT5OZLYkF9n8luIL4-1">
          <mxGeometry y="50.33333333333333" width="410" height="25" as="geometry" />
        </mxCell>
        <mxCell id="Qk3WT5OZLYkF9n8luIL4-4" value="- PID *pid_distance" style="text;strokeColor=none;fillColor=none;align=left;verticalAlign=top;spacingLeft=4;spacingRight=4;overflow=hidden;rotatable=0;points=[[0,0.5],[1,0.5]];portConstraint=eastwest;rounded=0;labelBackgroundColor=none;" vertex="1" parent="Qk3WT5OZLYkF9n8luIL4-1">
          <mxGeometry y="75.33333333333333" width="410" height="25" as="geometry" />
        </mxCell>
        <mxCell id="Qk3WT5OZLYkF9n8luIL4-5" value="- PID *pid_angle" style="text;strokeColor=none;fillColor=none;align=left;verticalAlign=top;spacingLeft=4;spacingRight=4;overflow=hidden;rotatable=0;points=[[0,0.5],[1,0.5]];portConstraint=eastwest;rounded=0;labelBackgroundColor=none;" vertex="1" parent="Qk3WT5OZLYkF9n8luIL4-1">
          <mxGeometry y="100.33333333333333" width="410" height="25" as="geometry" />
        </mxCell>
        <mxCell id="Qk3WT5OZLYkF9n8luIL4-6" style="line;strokeWidth=1;fillColor=none;align=left;verticalAlign=middle;spacingTop=-1;spacingLeft=3;spacingRight=3;rotatable=0;labelPosition=right;points=[];portConstraint=eastwest;rounded=0;labelBackgroundColor=none;" vertex="1" parent="Qk3WT5OZLYkF9n8luIL4-1">
          <mxGeometry y="125.33333333333333" width="410" height="8" as="geometry" />
        </mxCell>
        <mxCell id="Qk3WT5OZLYkF9n8luIL4-7" value="+ DriveControler(PIDMotor *motorL, PIDMotor *motorR)" style="text;strokeColor=none;fillColor=none;align=left;verticalAlign=top;spacingLeft=4;spacingRight=4;overflow=hidden;rotatable=0;points=[[0,0.5],[1,0.5]];portConstraint=eastwest;rounded=0;labelBackgroundColor=none;" vertex="1" parent="Qk3WT5OZLYkF9n8luIL4-1">
          <mxGeometry y="133.33333333333331" width="410" height="25" as="geometry" />
        </mxCell>
        <mxCell id="Qk3WT5OZLYkF9n8luIL4-8" value="+ void Update()" style="text;strokeColor=none;fillColor=none;align=left;verticalAlign=top;spacingLeft=4;spacingRight=4;overflow=hidden;rotatable=0;points=[[0,0.5],[1,0.5]];portConstraint=eastwest;rounded=0;labelBackgroundColor=none;" vertex="1" parent="Qk3WT5OZLYkF9n8luIL4-1">
          <mxGeometry y="158.33333333333331" width="410" height="25" as="geometry" />
        </mxCell>
        <mxCell id="Qk3WT5OZLYkF9n8luIL4-9" value="+ void Reset()" style="text;strokeColor=none;fillColor=none;align=left;verticalAlign=top;spacingLeft=4;spacingRight=4;overflow=hidden;rotatable=0;points=[[0,0.5],[1,0.5]];portConstraint=eastwest;rounded=0;labelBackgroundColor=none;" vertex="1" parent="Qk3WT5OZLYkF9n8luIL4-1">
          <mxGeometry y="183.33333333333331" width="410" height="25" as="geometry" />
        </mxCell>
        <mxCell id="Qk3WT5OZLYkF9n8luIL4-10" value="+ void UrgentStop()" style="text;strokeColor=none;fillColor=none;align=left;verticalAlign=top;spacingLeft=4;spacingRight=4;overflow=hidden;rotatable=0;points=[[0,0.5],[1,0.5]];portConstraint=eastwest;rounded=0;labelBackgroundColor=none;" vertex="1" parent="Qk3WT5OZLYkF9n8luIL4-1">
          <mxGeometry y="208.33333333333331" width="410" height="25" as="geometry" />
        </mxCell>
        <mxCell id="Qk3WT5OZLYkF9n8luIL4-11" value="PIDMotor" style="swimlane;fontStyle=1;align=center;verticalAlign=top;childLayout=stackLayout;horizontal=1;startSize=24.76923076923077;horizontalStack=0;resizeParent=1;resizeParentMax=0;resizeLast=0;collapsible=0;marginBottom=0;rounded=0;labelBackgroundColor=none;" vertex="1" parent="1">
          <mxGeometry x="2056.5" y="1575.0020512820513" width="231" height="157.76923076923077" as="geometry" />
        </mxCell>
        <mxCell id="Qk3WT5OZLYkF9n8luIL4-12" style="line;strokeWidth=1;fillColor=none;align=left;verticalAlign=middle;spacingTop=-1;spacingLeft=3;spacingRight=3;rotatable=0;labelPosition=right;points=[];portConstraint=eastwest;rounded=0;labelBackgroundColor=none;" vertex="1" parent="Qk3WT5OZLYkF9n8luIL4-11">
          <mxGeometry y="24.76923076923077" width="231" height="8" as="geometry" />
        </mxCell>
        <mxCell id="Qk3WT5OZLYkF9n8luIL4-13" value="+PIDMotor(...)" style="text;strokeColor=none;fillColor=none;align=left;verticalAlign=top;spacingLeft=4;spacingRight=4;overflow=hidden;rotatable=0;points=[[0,0.5],[1,0.5]];portConstraint=eastwest;rounded=0;labelBackgroundColor=none;" vertex="1" parent="Qk3WT5OZLYkF9n8luIL4-11">
          <mxGeometry y="32.769230769230774" width="231" height="25" as="geometry" />
        </mxCell>
        <mxCell id="Qk3WT5OZLYkF9n8luIL4-14" value="+void SetSpeed(double speed)" style="text;strokeColor=none;fillColor=none;align=left;verticalAlign=top;spacingLeft=4;spacingRight=4;overflow=hidden;rotatable=0;points=[[0,0.5],[1,0.5]];portConstraint=eastwest;rounded=0;labelBackgroundColor=none;" vertex="1" parent="Qk3WT5OZLYkF9n8luIL4-11">
          <mxGeometry y="57.769230769230774" width="231" height="25" as="geometry" />
        </mxCell>
        <mxCell id="Qk3WT5OZLYkF9n8luIL4-15" value="+void Update()" style="text;strokeColor=none;fillColor=none;align=left;verticalAlign=top;spacingLeft=4;spacingRight=4;overflow=hidden;rotatable=0;points=[[0,0.5],[1,0.5]];portConstraint=eastwest;rounded=0;labelBackgroundColor=none;" vertex="1" parent="Qk3WT5OZLYkF9n8luIL4-11">
          <mxGeometry y="82.76923076923077" width="231" height="25" as="geometry" />
        </mxCell>
        <mxCell id="Qk3WT5OZLYkF9n8luIL4-16" value="+void Reset()" style="text;strokeColor=none;fillColor=none;align=left;verticalAlign=top;spacingLeft=4;spacingRight=4;overflow=hidden;rotatable=0;points=[[0,0.5],[1,0.5]];portConstraint=eastwest;rounded=0;labelBackgroundColor=none;" vertex="1" parent="Qk3WT5OZLYkF9n8luIL4-11">
          <mxGeometry y="107.76923076923077" width="231" height="25" as="geometry" />
        </mxCell>
        <mxCell id="Qk3WT5OZLYkF9n8luIL4-17" value="+void UrgentStop()" style="text;strokeColor=none;fillColor=none;align=left;verticalAlign=top;spacingLeft=4;spacingRight=4;overflow=hidden;rotatable=0;points=[[0,0.5],[1,0.5]];portConstraint=eastwest;rounded=0;labelBackgroundColor=none;" vertex="1" parent="Qk3WT5OZLYkF9n8luIL4-11">
          <mxGeometry y="132.76923076923077" width="231" height="25" as="geometry" />
        </mxCell>
        <mxCell id="Qk3WT5OZLYkF9n8luIL4-18" value="PositionControler" style="swimlane;fontStyle=1;align=center;verticalAlign=top;childLayout=stackLayout;horizontal=1;startSize=24.444441731770834;horizontalStack=0;resizeParent=1;resizeParentMax=0;resizeLast=0;collapsible=0;marginBottom=0;rounded=0;labelBackgroundColor=none;" vertex="1" parent="1">
          <mxGeometry x="1970" y="915.0030172293526" width="396" height="176.44444173177084" as="geometry" />
        </mxCell>
        <mxCell id="Qk3WT5OZLYkF9n8luIL4-19" style="line;strokeWidth=1;fillColor=none;align=left;verticalAlign=middle;spacingTop=-1;spacingLeft=3;spacingRight=3;rotatable=0;labelPosition=right;points=[];portConstraint=eastwest;rounded=0;labelBackgroundColor=none;" vertex="1" parent="Qk3WT5OZLYkF9n8luIL4-18">
          <mxGeometry y="24.444441731770834" width="396" height="8" as="geometry" />
        </mxCell>
        <mxCell id="Qk3WT5OZLYkF9n8luIL4-20" value="PositionControler(DriveControler* driveControler, ...)" style="text;strokeColor=none;fillColor=none;align=left;verticalAlign=top;spacingLeft=4;spacingRight=4;overflow=hidden;rotatable=0;points=[[0,0.5],[1,0.5]];portConstraint=eastwest;rounded=0;labelBackgroundColor=none;" vertex="1" parent="Qk3WT5OZLYkF9n8luIL4-18">
          <mxGeometry y="32.44444173177084" width="396" height="24" as="geometry" />
        </mxCell>
        <mxCell id="Qk3WT5OZLYkF9n8luIL4-21" value="+void Update()" style="text;strokeColor=none;fillColor=none;align=left;verticalAlign=top;spacingLeft=4;spacingRight=4;overflow=hidden;rotatable=0;points=[[0,0.5],[1,0.5]];portConstraint=eastwest;rounded=0;labelBackgroundColor=none;" vertex="1" parent="Qk3WT5OZLYkF9n8luIL4-18">
          <mxGeometry y="56.44444173177084" width="396" height="24" as="geometry" />
        </mxCell>
        <mxCell id="Qk3WT5OZLYkF9n8luIL4-22" value="+void SoftReset()" style="text;strokeColor=none;fillColor=none;align=left;verticalAlign=top;spacingLeft=4;spacingRight=4;overflow=hidden;rotatable=0;points=[[0,0.5],[1,0.5]];portConstraint=eastwest;rounded=0;labelBackgroundColor=none;" vertex="1" parent="Qk3WT5OZLYkF9n8luIL4-18">
          <mxGeometry y="80.44444173177084" width="396" height="24" as="geometry" />
        </mxCell>
        <mxCell id="Qk3WT5OZLYkF9n8luIL4-23" value="+Point GetCurrentPoint()" style="text;strokeColor=none;fillColor=none;align=left;verticalAlign=top;spacingLeft=4;spacingRight=4;overflow=hidden;rotatable=0;points=[[0,0.5],[1,0.5]];portConstraint=eastwest;rounded=0;labelBackgroundColor=none;" vertex="1" parent="Qk3WT5OZLYkF9n8luIL4-18">
          <mxGeometry y="104.44444173177084" width="396" height="24" as="geometry" />
        </mxCell>
        <mxCell id="Qk3WT5OZLYkF9n8luIL4-24" value="+double GetCurrentAngle()" style="text;strokeColor=none;fillColor=none;align=left;verticalAlign=top;spacingLeft=4;spacingRight=4;overflow=hidden;rotatable=0;points=[[0,0.5],[1,0.5]];portConstraint=eastwest;rounded=0;labelBackgroundColor=none;" vertex="1" parent="Qk3WT5OZLYkF9n8luIL4-18">
          <mxGeometry y="128.44444173177084" width="396" height="24" as="geometry" />
        </mxCell>
        <mxCell id="Qk3WT5OZLYkF9n8luIL4-25" value="+void Reset()" style="text;strokeColor=none;fillColor=none;align=left;verticalAlign=top;spacingLeft=4;spacingRight=4;overflow=hidden;rotatable=0;points=[[0,0.5],[1,0.5]];portConstraint=eastwest;rounded=0;labelBackgroundColor=none;" vertex="1" parent="Qk3WT5OZLYkF9n8luIL4-18">
          <mxGeometry y="152.44444173177084" width="396" height="24" as="geometry" />
        </mxCell>
        <mxCell id="Qk3WT5OZLYkF9n8luIL4-26" value="Point" style="swimlane;fontStyle=1;align=center;verticalAlign=top;childLayout=stackLayout;horizontal=1;startSize=26.857142857142858;horizontalStack=0;resizeParent=1;resizeParentMax=0;resizeLast=0;collapsible=0;marginBottom=0;rounded=0;labelBackgroundColor=none;swimlaneLine=1;" vertex="1" parent="1">
          <mxGeometry x="1795" y="210" width="95" height="93.85714285714286" as="geometry" />
        </mxCell>
        <mxCell id="Qk3WT5OZLYkF9n8luIL4-27" value="+double x;" style="text;strokeColor=none;fillColor=none;align=left;verticalAlign=top;spacingLeft=4;spacingRight=4;overflow=hidden;rotatable=0;points=[[0,0.5],[1,0.5]];portConstraint=eastwest;rounded=0;labelBackgroundColor=none;" vertex="1" parent="Qk3WT5OZLYkF9n8luIL4-26">
          <mxGeometry y="26.857142857142858" width="95" height="27" as="geometry" />
        </mxCell>
        <mxCell id="Qk3WT5OZLYkF9n8luIL4-28" value="+double y;" style="text;strokeColor=none;fillColor=none;align=left;verticalAlign=top;spacingLeft=4;spacingRight=4;overflow=hidden;rotatable=0;points=[[0,0.5],[1,0.5]];portConstraint=eastwest;rounded=0;labelBackgroundColor=none;" vertex="1" parent="Qk3WT5OZLYkF9n8luIL4-26">
          <mxGeometry y="53.85714285714286" width="95" height="27" as="geometry" />
        </mxCell>
        <mxCell id="Qk3WT5OZLYkF9n8luIL4-29" style="line;strokeWidth=1;fillColor=none;align=left;verticalAlign=middle;spacingTop=-1;spacingLeft=3;spacingRight=3;rotatable=0;labelPosition=right;points=[];portConstraint=eastwest;rounded=0;labelBackgroundColor=none;" vertex="1" parent="Qk3WT5OZLYkF9n8luIL4-26">
          <mxGeometry y="80.85714285714286" width="95" height="13" as="geometry" />
        </mxCell>
        <mxCell id="Qk3WT5OZLYkF9n8luIL4-43" value="ValueConverter" style="swimlane;fontStyle=1;align=center;verticalAlign=top;childLayout=stackLayout;horizontal=1;startSize=25.212119362571023;horizontalStack=0;resizeParent=1;resizeParentMax=0;resizeLast=0;collapsible=0;marginBottom=0;rounded=0;labelBackgroundColor=none;" vertex="1" parent="1">
          <mxGeometry x="655" y="525.0074589611236" width="337" height="133.21211936257103" as="geometry" />
        </mxCell>
        <mxCell id="Qk3WT5OZLYkF9n8luIL4-44" style="line;strokeWidth=1;fillColor=none;align=left;verticalAlign=middle;spacingTop=-1;spacingLeft=3;spacingRight=3;rotatable=0;labelPosition=right;points=[];portConstraint=eastwest;rounded=0;labelBackgroundColor=none;" vertex="1" parent="Qk3WT5OZLYkF9n8luIL4-43">
          <mxGeometry y="25.212119362571023" width="337" height="8" as="geometry" />
        </mxCell>
        <mxCell id="Qk3WT5OZLYkF9n8luIL4-45" value="+double PulseToDistanceCM(int pulse)" style="text;strokeColor=none;fillColor=none;align=left;verticalAlign=top;spacingLeft=4;spacingRight=4;overflow=hidden;rotatable=0;points=[[0,0.5],[1,0.5]];portConstraint=eastwest;rounded=0;labelBackgroundColor=none;" vertex="1" parent="Qk3WT5OZLYkF9n8luIL4-43">
          <mxGeometry y="33.21211936257102" width="337" height="25" as="geometry" />
        </mxCell>
        <mxCell id="Qk3WT5OZLYkF9n8luIL4-46" value="+double PulseToAngle(int pulse)" style="text;strokeColor=none;fillColor=none;align=left;verticalAlign=top;spacingLeft=4;spacingRight=4;overflow=hidden;rotatable=0;points=[[0,0.5],[1,0.5]];portConstraint=eastwest;rounded=0;labelBackgroundColor=none;" vertex="1" parent="Qk3WT5OZLYkF9n8luIL4-43">
          <mxGeometry y="58.21211936257102" width="337" height="25" as="geometry" />
        </mxCell>
        <mxCell id="Qk3WT5OZLYkF9n8luIL4-47" value="+double AngleToPulse(double angle)" style="text;strokeColor=none;fillColor=none;align=left;verticalAlign=top;spacingLeft=4;spacingRight=4;overflow=hidden;rotatable=0;points=[[0,0.5],[1,0.5]];portConstraint=eastwest;rounded=0;labelBackgroundColor=none;" vertex="1" parent="Qk3WT5OZLYkF9n8luIL4-43">
          <mxGeometry y="83.21211936257103" width="337" height="25" as="geometry" />
        </mxCell>
        <mxCell id="Qk3WT5OZLYkF9n8luIL4-48" value="+double DistanceCMToPulse(double distance)" style="text;strokeColor=none;fillColor=none;align=left;verticalAlign=top;spacingLeft=4;spacingRight=4;overflow=hidden;rotatable=0;points=[[0,0.5],[1,0.5]];portConstraint=eastwest;rounded=0;labelBackgroundColor=none;" vertex="1" parent="Qk3WT5OZLYkF9n8luIL4-43">
          <mxGeometry y="108.21211936257103" width="337" height="25" as="geometry" />
        </mxCell>
        <mxCell id="Qk3WT5OZLYkF9n8luIL4-49" value="BasicTask" style="swimlane;fontStyle=1;align=center;verticalAlign=top;childLayout=stackLayout;horizontal=1;startSize=24.583333333333332;horizontalStack=0;resizeParent=1;resizeParentMax=0;resizeLast=0;collapsible=0;marginBottom=0;rounded=0;labelBackgroundColor=none;" vertex="1" parent="1">
          <mxGeometry x="655" y="-120" width="195" height="307.5833333333333" as="geometry" />
        </mxCell>
        <mxCell id="Qk3WT5OZLYkF9n8luIL4-50" value="+int id;" style="text;strokeColor=none;fillColor=none;align=left;verticalAlign=top;spacingLeft=4;spacingRight=4;overflow=hidden;rotatable=0;points=[[0,0.5],[1,0.5]];portConstraint=eastwest;rounded=0;labelBackgroundColor=none;" vertex="1" parent="Qk3WT5OZLYkF9n8luIL4-49">
          <mxGeometry y="24.583333333333332" width="195" height="25" as="geometry" />
        </mxCell>
        <mxCell id="Qk3WT5OZLYkF9n8luIL4-51" value="+long start_time;" style="text;strokeColor=none;fillColor=none;align=left;verticalAlign=top;spacingLeft=4;spacingRight=4;overflow=hidden;rotatable=0;points=[[0,0.5],[1,0.5]];portConstraint=eastwest;rounded=0;labelBackgroundColor=none;" vertex="1" parent="Qk3WT5OZLYkF9n8luIL4-49">
          <mxGeometry y="49.58333333333333" width="195" height="25" as="geometry" />
        </mxCell>
        <mxCell id="Qk3WT5OZLYkF9n8luIL4-52" value="+long time_to_live;" style="text;strokeColor=none;fillColor=none;align=left;verticalAlign=top;spacingLeft=4;spacingRight=4;overflow=hidden;rotatable=0;points=[[0,0.5],[1,0.5]];portConstraint=eastwest;rounded=0;labelBackgroundColor=none;" vertex="1" parent="Qk3WT5OZLYkF9n8luIL4-49">
          <mxGeometry y="74.58333333333333" width="195" height="25" as="geometry" />
        </mxCell>
        <mxCell id="Qk3WT5OZLYkF9n8luIL4-53" style="line;strokeWidth=1;fillColor=none;align=left;verticalAlign=middle;spacingTop=-1;spacingLeft=3;spacingRight=3;rotatable=0;labelPosition=right;points=[];portConstraint=eastwest;rounded=0;labelBackgroundColor=none;" vertex="1" parent="Qk3WT5OZLYkF9n8luIL4-49">
          <mxGeometry y="99.58333333333333" width="195" height="8" as="geometry" />
        </mxCell>
        <mxCell id="Qk3WT5OZLYkF9n8luIL4-54" value="-virtual bool _IsDone();" style="text;strokeColor=none;fillColor=none;align=left;verticalAlign=top;spacingLeft=4;spacingRight=4;overflow=hidden;rotatable=0;points=[[0,0.5],[1,0.5]];portConstraint=eastwest;rounded=0;labelBackgroundColor=none;" vertex="1" parent="Qk3WT5OZLYkF9n8luIL4-49">
          <mxGeometry y="107.58333333333333" width="195" height="25" as="geometry" />
        </mxCell>
        <mxCell id="Qk3WT5OZLYkF9n8luIL4-55" value="-virtual void _Update();" style="text;strokeColor=none;fillColor=none;align=left;verticalAlign=top;spacingLeft=4;spacingRight=4;overflow=hidden;rotatable=0;points=[[0,0.5],[1,0.5]];portConstraint=eastwest;rounded=0;labelBackgroundColor=none;" vertex="1" parent="Qk3WT5OZLYkF9n8luIL4-49">
          <mxGeometry y="132.58333333333331" width="195" height="25" as="geometry" />
        </mxCell>
        <mxCell id="Qk3WT5OZLYkF9n8luIL4-56" value="-virtual void _Compute();" style="text;strokeColor=none;fillColor=none;align=left;verticalAlign=top;spacingLeft=4;spacingRight=4;overflow=hidden;rotatable=0;points=[[0,0.5],[1,0.5]];portConstraint=eastwest;rounded=0;labelBackgroundColor=none;" vertex="1" parent="Qk3WT5OZLYkF9n8luIL4-49">
          <mxGeometry y="157.58333333333331" width="195" height="25" as="geometry" />
        </mxCell>
        <mxCell id="Qk3WT5OZLYkF9n8luIL4-57" value="-virtual void _Debug();" style="text;strokeColor=none;fillColor=none;align=left;verticalAlign=top;spacingLeft=4;spacingRight=4;overflow=hidden;rotatable=0;points=[[0,0.5],[1,0.5]];portConstraint=eastwest;rounded=0;labelBackgroundColor=none;" vertex="1" parent="Qk3WT5OZLYkF9n8luIL4-49">
          <mxGeometry y="182.58333333333331" width="195" height="25" as="geometry" />
        </mxCell>
        <mxCell id="Qk3WT5OZLYkF9n8luIL4-58" value="+void Compute()" style="text;strokeColor=none;fillColor=none;align=left;verticalAlign=top;spacingLeft=4;spacingRight=4;overflow=hidden;rotatable=0;points=[[0,0.5],[1,0.5]];portConstraint=eastwest;rounded=0;labelBackgroundColor=none;" vertex="1" parent="Qk3WT5OZLYkF9n8luIL4-49">
          <mxGeometry y="207.58333333333331" width="195" height="25" as="geometry" />
        </mxCell>
        <mxCell id="Qk3WT5OZLYkF9n8luIL4-59" value="+void Update()" style="text;strokeColor=none;fillColor=none;align=left;verticalAlign=top;spacingLeft=4;spacingRight=4;overflow=hidden;rotatable=0;points=[[0,0.5],[1,0.5]];portConstraint=eastwest;rounded=0;labelBackgroundColor=none;" vertex="1" parent="Qk3WT5OZLYkF9n8luIL4-49">
          <mxGeometry y="232.58333333333331" width="195" height="25" as="geometry" />
        </mxCell>
        <mxCell id="Qk3WT5OZLYkF9n8luIL4-60" value="+bool IsDone()" style="text;strokeColor=none;fillColor=none;align=left;verticalAlign=top;spacingLeft=4;spacingRight=4;overflow=hidden;rotatable=0;points=[[0,0.5],[1,0.5]];portConstraint=eastwest;rounded=0;labelBackgroundColor=none;" vertex="1" parent="Qk3WT5OZLYkF9n8luIL4-49">
          <mxGeometry y="257.5833333333333" width="195" height="25" as="geometry" />
        </mxCell>
        <mxCell id="Qk3WT5OZLYkF9n8luIL4-61" value="+void Debug()" style="text;strokeColor=none;fillColor=none;align=left;verticalAlign=top;spacingLeft=4;spacingRight=4;overflow=hidden;rotatable=0;points=[[0,0.5],[1,0.5]];portConstraint=eastwest;rounded=0;labelBackgroundColor=none;" vertex="1" parent="Qk3WT5OZLYkF9n8luIL4-49">
          <mxGeometry y="282.5833333333333" width="195" height="25" as="geometry" />
        </mxCell>
        <mxCell id="Qk3WT5OZLYkF9n8luIL4-62" value="MoveTask" style="swimlane;fontStyle=1;align=center;verticalAlign=top;childLayout=stackLayout;horizontal=1;startSize=24.76923076923077;horizontalStack=0;resizeParent=1;resizeParentMax=0;resizeLast=0;collapsible=0;marginBottom=0;glass=0;shadow=0;rounded=0;labelBackgroundColor=none;" vertex="1" parent="1">
          <mxGeometry x="655" y="-600" width="978" height="157.76923076923077" as="geometry" />
        </mxCell>
        <mxCell id="Qk3WT5OZLYkF9n8luIL4-63" style="line;strokeWidth=1;fillColor=none;align=left;verticalAlign=middle;spacingTop=-1;spacingLeft=3;spacingRight=3;rotatable=0;labelPosition=right;points=[];portConstraint=eastwest;rounded=0;labelBackgroundColor=none;" vertex="1" parent="Qk3WT5OZLYkF9n8luIL4-62">
          <mxGeometry y="24.76923076923077" width="978" height="8" as="geometry" />
        </mxCell>
        <mxCell id="Qk3WT5OZLYkF9n8luIL4-64" value="-override bool _IsDone();" style="text;strokeColor=none;fillColor=none;align=left;verticalAlign=top;spacingLeft=4;spacingRight=4;overflow=hidden;rotatable=0;points=[[0,0.5],[1,0.5]];portConstraint=eastwest;rounded=0;labelBackgroundColor=none;" vertex="1" parent="Qk3WT5OZLYkF9n8luIL4-62">
          <mxGeometry y="32.769230769230774" width="978" height="25" as="geometry" />
        </mxCell>
        <mxCell id="Qk3WT5OZLYkF9n8luIL4-65" value="-override void _Update();" style="text;strokeColor=none;fillColor=none;align=left;verticalAlign=top;spacingLeft=4;spacingRight=4;overflow=hidden;rotatable=0;points=[[0,0.5],[1,0.5]];portConstraint=eastwest;rounded=0;labelBackgroundColor=none;" vertex="1" parent="Qk3WT5OZLYkF9n8luIL4-62">
          <mxGeometry y="57.769230769230774" width="978" height="25" as="geometry" />
        </mxCell>
        <mxCell id="Qk3WT5OZLYkF9n8luIL4-66" value="-override void _Compute();" style="text;strokeColor=none;fillColor=none;align=left;verticalAlign=top;spacingLeft=4;spacingRight=4;overflow=hidden;rotatable=0;points=[[0,0.5],[1,0.5]];portConstraint=eastwest;rounded=0;labelBackgroundColor=none;" vertex="1" parent="Qk3WT5OZLYkF9n8luIL4-62">
          <mxGeometry y="82.76923076923077" width="978" height="25" as="geometry" />
        </mxCell>
        <mxCell id="Qk3WT5OZLYkF9n8luIL4-67" value="-override void _Debug();" style="text;strokeColor=none;fillColor=none;align=left;verticalAlign=top;spacingLeft=4;spacingRight=4;overflow=hidden;rotatable=0;points=[[0,0.5],[1,0.5]];portConstraint=eastwest;rounded=0;labelBackgroundColor=none;" vertex="1" parent="Qk3WT5OZLYkF9n8luIL4-62">
          <mxGeometry y="107.76923076923077" width="978" height="25" as="geometry" />
        </mxCell>
        <mxCell id="Qk3WT5OZLYkF9n8luIL4-68" value="MoveTask(PositionControler *positionControler, DriveControler *driveControler, ValueConverter *valueConverter, Point target_position)" style="text;strokeColor=none;fillColor=none;align=left;verticalAlign=top;spacingLeft=4;spacingRight=4;overflow=hidden;rotatable=0;points=[[0,0.5],[1,0.5]];portConstraint=eastwest;rounded=0;labelBackgroundColor=none;" vertex="1" parent="Qk3WT5OZLYkF9n8luIL4-62">
          <mxGeometry y="132.76923076923077" width="978" height="25" as="geometry" />
        </mxCell>
        <mxCell id="Qk3WT5OZLYkF9n8luIL4-69" value="RotateTask" style="swimlane;fontStyle=1;align=center;verticalAlign=top;childLayout=stackLayout;horizontal=1;startSize=24.76923076923077;horizontalStack=0;resizeParent=1;resizeParentMax=0;resizeLast=0;collapsible=0;marginBottom=0;rounded=0;labelBackgroundColor=none;" vertex="1" parent="1">
          <mxGeometry x="1660" y="-600" width="988" height="157.76923076923077" as="geometry" />
        </mxCell>
        <mxCell id="Qk3WT5OZLYkF9n8luIL4-70" style="line;strokeWidth=1;fillColor=none;align=left;verticalAlign=middle;spacingTop=-1;spacingLeft=3;spacingRight=3;rotatable=0;labelPosition=right;points=[];portConstraint=eastwest;rounded=0;labelBackgroundColor=none;" vertex="1" parent="Qk3WT5OZLYkF9n8luIL4-69">
          <mxGeometry y="24.76923076923077" width="988" height="8" as="geometry" />
        </mxCell>
        <mxCell id="Qk3WT5OZLYkF9n8luIL4-71" value="-override bool _IsDone();" style="text;strokeColor=none;fillColor=none;align=left;verticalAlign=top;spacingLeft=4;spacingRight=4;overflow=hidden;rotatable=0;points=[[0,0.5],[1,0.5]];portConstraint=eastwest;rounded=0;labelBackgroundColor=none;" vertex="1" parent="Qk3WT5OZLYkF9n8luIL4-69">
          <mxGeometry y="32.769230769230774" width="988" height="25" as="geometry" />
        </mxCell>
        <mxCell id="Qk3WT5OZLYkF9n8luIL4-72" value="-override void _Update();" style="text;strokeColor=none;fillColor=none;align=left;verticalAlign=top;spacingLeft=4;spacingRight=4;overflow=hidden;rotatable=0;points=[[0,0.5],[1,0.5]];portConstraint=eastwest;rounded=0;labelBackgroundColor=none;" vertex="1" parent="Qk3WT5OZLYkF9n8luIL4-69">
          <mxGeometry y="57.769230769230774" width="988" height="25" as="geometry" />
        </mxCell>
        <mxCell id="Qk3WT5OZLYkF9n8luIL4-73" value="-override void _Compute();" style="text;strokeColor=none;fillColor=none;align=left;verticalAlign=top;spacingLeft=4;spacingRight=4;overflow=hidden;rotatable=0;points=[[0,0.5],[1,0.5]];portConstraint=eastwest;rounded=0;labelBackgroundColor=none;" vertex="1" parent="Qk3WT5OZLYkF9n8luIL4-69">
          <mxGeometry y="82.76923076923077" width="988" height="25" as="geometry" />
        </mxCell>
        <mxCell id="Qk3WT5OZLYkF9n8luIL4-74" value="-override void _Debug();" style="text;strokeColor=none;fillColor=none;align=left;verticalAlign=top;spacingLeft=4;spacingRight=4;overflow=hidden;rotatable=0;points=[[0,0.5],[1,0.5]];portConstraint=eastwest;rounded=0;labelBackgroundColor=none;" vertex="1" parent="Qk3WT5OZLYkF9n8luIL4-69">
          <mxGeometry y="107.76923076923077" width="988" height="25" as="geometry" />
        </mxCell>
        <mxCell id="Qk3WT5OZLYkF9n8luIL4-75" value="RotateTask(PositionControler *positionControler, DriveControler *driveControler, ValueConverter *valueConverter, Point target_position)" style="text;strokeColor=none;fillColor=none;align=left;verticalAlign=top;spacingLeft=4;spacingRight=4;overflow=hidden;rotatable=0;points=[[0,0.5],[1,0.5]];portConstraint=eastwest;rounded=0;labelBackgroundColor=none;" vertex="1" parent="Qk3WT5OZLYkF9n8luIL4-69">
          <mxGeometry y="132.76923076923077" width="988" height="25" as="geometry" />
        </mxCell>
        <mxCell id="Qk3WT5OZLYkF9n8luIL4-76" value="WaitTask" style="swimlane;fontStyle=1;align=center;verticalAlign=top;childLayout=stackLayout;horizontal=1;startSize=24.76923076923077;horizontalStack=0;resizeParent=1;resizeParentMax=0;resizeLast=0;collapsible=0;marginBottom=0;rounded=0;labelBackgroundColor=none;" vertex="1" parent="1">
          <mxGeometry x="2680" y="-600" width="315" height="157.76923076923077" as="geometry" />
        </mxCell>
        <mxCell id="Qk3WT5OZLYkF9n8luIL4-77" style="line;strokeWidth=1;fillColor=none;align=left;verticalAlign=middle;spacingTop=-1;spacingLeft=3;spacingRight=3;rotatable=0;labelPosition=right;points=[];portConstraint=eastwest;rounded=0;labelBackgroundColor=none;" vertex="1" parent="Qk3WT5OZLYkF9n8luIL4-76">
          <mxGeometry y="24.76923076923077" width="315" height="8" as="geometry" />
        </mxCell>
        <mxCell id="Qk3WT5OZLYkF9n8luIL4-78" value="-override bool _IsDone();" style="text;strokeColor=none;fillColor=none;align=left;verticalAlign=top;spacingLeft=4;spacingRight=4;overflow=hidden;rotatable=0;points=[[0,0.5],[1,0.5]];portConstraint=eastwest;rounded=0;labelBackgroundColor=none;" vertex="1" parent="Qk3WT5OZLYkF9n8luIL4-76">
          <mxGeometry y="32.769230769230774" width="315" height="25" as="geometry" />
        </mxCell>
        <mxCell id="Qk3WT5OZLYkF9n8luIL4-79" value="-override void _Update();" style="text;strokeColor=none;fillColor=none;align=left;verticalAlign=top;spacingLeft=4;spacingRight=4;overflow=hidden;rotatable=0;points=[[0,0.5],[1,0.5]];portConstraint=eastwest;rounded=0;labelBackgroundColor=none;" vertex="1" parent="Qk3WT5OZLYkF9n8luIL4-76">
          <mxGeometry y="57.769230769230774" width="315" height="25" as="geometry" />
        </mxCell>
        <mxCell id="Qk3WT5OZLYkF9n8luIL4-80" value="-override void _Compute();" style="text;strokeColor=none;fillColor=none;align=left;verticalAlign=top;spacingLeft=4;spacingRight=4;overflow=hidden;rotatable=0;points=[[0,0.5],[1,0.5]];portConstraint=eastwest;rounded=0;labelBackgroundColor=none;" vertex="1" parent="Qk3WT5OZLYkF9n8luIL4-76">
          <mxGeometry y="82.76923076923077" width="315" height="25" as="geometry" />
        </mxCell>
        <mxCell id="Qk3WT5OZLYkF9n8luIL4-81" value="-override void _Debug();" style="text;strokeColor=none;fillColor=none;align=left;verticalAlign=top;spacingLeft=4;spacingRight=4;overflow=hidden;rotatable=0;points=[[0,0.5],[1,0.5]];portConstraint=eastwest;rounded=0;labelBackgroundColor=none;" vertex="1" parent="Qk3WT5OZLYkF9n8luIL4-76">
          <mxGeometry y="107.76923076923077" width="315" height="25" as="geometry" />
        </mxCell>
        <mxCell id="Qk3WT5OZLYkF9n8luIL4-82" value="WaitTask(DriveControler *driveControler)" style="text;strokeColor=none;fillColor=none;align=left;verticalAlign=top;spacingLeft=4;spacingRight=4;overflow=hidden;rotatable=0;points=[[0,0.5],[1,0.5]];portConstraint=eastwest;rounded=0;labelBackgroundColor=none;" vertex="1" parent="Qk3WT5OZLYkF9n8luIL4-76">
          <mxGeometry y="132.76923076923077" width="315" height="25" as="geometry" />
        </mxCell>
        <mxCell id="Qk3WT5OZLYkF9n8luIL4-83" value="" style="curved=1;startArrow=diamondThin;startSize=14;startFill=0;endArrow=none;exitX=0.49915066331920055;exitY=1;entryX=0.5006790821686452;entryY=0;rounded=0;labelBackgroundColor=none;fontColor=default;" edge="1" parent="1" source="Qk3WT5OZLYkF9n8luIL4-1" target="Qk3WT5OZLYkF9n8luIL4-11">
          <mxGeometry relative="1" as="geometry" />
        </mxCell>
        <mxCell id="Qk3WT5OZLYkF9n8luIL4-84" value="" style="curved=1;startArrow=diamondThin;startSize=14;startFill=0;endArrow=none;exitX=0.505;exitY=1.066;rounded=0;labelBackgroundColor=none;fontColor=default;exitDx=0;exitDy=0;exitPerimeter=0;" edge="1" parent="1" source="Qk3WT5OZLYkF9n8luIL4-25">
          <mxGeometry relative="1" as="geometry">
            <mxPoint x="2170" y="1170" as="targetPoint" />
          </mxGeometry>
        </mxCell>
        <mxCell id="Qk3WT5OZLYkF9n8luIL4-85" value="" style="curved=0;dashed=1;startArrow=none;endArrow=none;exitX=-0.008;exitY=0.018;rounded=0;labelBackgroundColor=none;fontColor=default;exitDx=0;exitDy=0;exitPerimeter=0;" edge="1" parent="1" source="Qk3WT5OZLYkF9n8luIL4-23">
          <mxGeometry relative="1" as="geometry">
            <Array as="points">
              <mxPoint x="1860" y="1020" />
            </Array>
            <mxPoint x="1860" y="300" as="targetPoint" />
          </mxGeometry>
        </mxCell>
        <mxCell id="Qk3WT5OZLYkF9n8luIL4-86" value="" style="curved=0;startArrow=diamondThin;startSize=14;startFill=0;endArrow=none;entryX=1;entryY=0.5;rounded=0;labelBackgroundColor=none;fontColor=default;entryDx=0;entryDy=0;" edge="1" parent="1" target="Qk3WT5OZLYkF9n8luIL4-20">
          <mxGeometry relative="1" as="geometry">
            <Array as="points">
              <mxPoint x="2665" y="960" />
            </Array>
            <mxPoint x="2665" y="825" as="sourcePoint" />
          </mxGeometry>
        </mxCell>
        <mxCell id="Qk3WT5OZLYkF9n8luIL4-88" value="" style="curved=1;startArrow=diamondThin;startSize=14;startFill=0;endArrow=none;exitX=-0.003;exitY=0.759;entryX=1.011;entryY=0.743;rounded=0;labelBackgroundColor=none;fontColor=default;exitDx=0;exitDy=0;entryDx=0;entryDy=0;entryPerimeter=0;exitPerimeter=0;" edge="1" parent="1" source="Qk3WT5OZLYkF9n8luIL4-33" target="Qk3WT5OZLYkF9n8luIL4-46">
          <mxGeometry relative="1" as="geometry" />
        </mxCell>
        <mxCell id="Qk3WT5OZLYkF9n8luIL4-89" value="" style="curved=0;dashed=1;startArrow=none;endArrow=none;exitX=0.035;exitY=0.004;rounded=0;labelBackgroundColor=none;fontColor=default;exitDx=0;exitDy=0;exitPerimeter=0;" edge="1" parent="1" source="Qk3WT5OZLYkF9n8luIL4-30">
          <mxGeometry relative="1" as="geometry">
            <Array as="points">
              <mxPoint x="2000" y="480" />
              <mxPoint x="1440" y="480" />
              <mxPoint x="1440" y="121" />
            </Array>
            <mxPoint x="850" y="121" as="targetPoint" />
          </mxGeometry>
        </mxCell>
        <mxCell id="Qk3WT5OZLYkF9n8luIL4-90" value="" style="curved=0;startArrow=block;startSize=16;startFill=0;endArrow=none;entryX=0;entryY=0.5;rounded=0;labelBackgroundColor=none;fontColor=default;entryDx=0;entryDy=0;exitX=0.068;exitY=-0.022;exitDx=0;exitDy=0;exitPerimeter=0;" edge="1" parent="1" source="Qk3WT5OZLYkF9n8luIL4-62" target="Qk3WT5OZLYkF9n8luIL4-51">
          <mxGeometry relative="1" as="geometry">
            <Array as="points">
              <mxPoint x="720" y="-660" />
              <mxPoint x="600" y="-660" />
              <mxPoint x="600" y="-58" />
            </Array>
            <mxPoint x="795" y="-660" as="sourcePoint" />
          </mxGeometry>
        </mxCell>
        <mxCell id="Qk3WT5OZLYkF9n8luIL4-91" value="" style="curved=0;startArrow=block;startSize=16;startFill=0;endArrow=none;entryX=0;entryY=0.5;rounded=0;labelBackgroundColor=none;fontColor=default;entryDx=0;entryDy=0;exitX=0.08;exitY=-0.026;exitDx=0;exitDy=0;exitPerimeter=0;" edge="1" parent="1" source="Qk3WT5OZLYkF9n8luIL4-69" target="Qk3WT5OZLYkF9n8luIL4-54">
          <mxGeometry relative="1" as="geometry">
            <Array as="points">
              <mxPoint x="1740" y="-720" />
              <mxPoint x="540" y="-720" />
              <mxPoint x="540" />
            </Array>
            <mxPoint x="1800" y="-720" as="sourcePoint" />
          </mxGeometry>
        </mxCell>
        <mxCell id="Qk3WT5OZLYkF9n8luIL4-92" value="" style="curved=0;startArrow=block;startSize=16;startFill=0;endArrow=none;exitX=0.25;exitY=0;entryX=-0.002;entryY=-0.146;rounded=0;labelBackgroundColor=none;fontColor=default;exitDx=0;exitDy=0;entryDx=0;entryDy=0;entryPerimeter=0;" edge="1" parent="1" source="Qk3WT5OZLYkF9n8luIL4-76" target="Qk3WT5OZLYkF9n8luIL4-57">
          <mxGeometry relative="1" as="geometry">
            <Array as="points">
              <mxPoint x="2760" y="-780" />
              <mxPoint x="480" y="-780" />
              <mxPoint x="480" y="60" />
            </Array>
          </mxGeometry>
        </mxCell>
        <mxCell id="Qk3WT5OZLYkF9n8luIL4-94" value="" style="curved=0;startArrow=diamondThin;startSize=14;startFill=0;endArrow=none;rounded=0;labelBackgroundColor=none;fontColor=default;" edge="1" parent="1">
          <mxGeometry relative="1" as="geometry">
            <Array as="points">
              <mxPoint x="1150" y="-690" />
              <mxPoint x="3070" y="-690" />
              <mxPoint x="3070" y="1395" />
            </Array>
            <mxPoint x="1150" y="-600" as="sourcePoint" />
            <mxPoint x="2380" y="1395" as="targetPoint" />
          </mxGeometry>
        </mxCell>
        <mxCell id="Qk3WT5OZLYkF9n8luIL4-95" value="" style="curved=0;startArrow=diamondThin;startSize=14;startFill=0;endArrow=none;rounded=0;labelBackgroundColor=none;fontColor=default;" edge="1" parent="1">
          <mxGeometry relative="1" as="geometry">
            <Array as="points">
              <mxPoint x="960" y="180" />
            </Array>
            <mxPoint x="960" y="-435" as="sourcePoint" />
            <mxPoint x="960" y="525" as="targetPoint" />
          </mxGeometry>
        </mxCell>
        <mxCell id="Qk3WT5OZLYkF9n8luIL4-96" value="" style="curved=0;dashed=1;startArrow=none;endArrow=none;exitX=0.927;exitY=1.209;rounded=0;labelBackgroundColor=none;fontColor=default;exitDx=0;exitDy=0;exitPerimeter=0;" edge="1" parent="1" source="Qk3WT5OZLYkF9n8luIL4-68">
          <mxGeometry relative="1" as="geometry">
            <Array as="points">
              <mxPoint x="1560" y="-200" />
              <mxPoint x="1560" y="240" />
            </Array>
            <mxPoint x="1790" y="240" as="targetPoint" />
          </mxGeometry>
        </mxCell>
        <mxCell id="Qk3WT5OZLYkF9n8luIL4-98" value="" style="curved=0;startArrow=diamondThin;startSize=14;startFill=0;endArrow=none;rounded=0;labelBackgroundColor=none;fontColor=default;entryX=0.999;entryY=-0.18;entryDx=0;entryDy=0;entryPerimeter=0;" edge="1" parent="1" target="Qk3WT5OZLYkF9n8luIL4-9">
          <mxGeometry relative="1" as="geometry">
            <Array as="points">
              <mxPoint x="2500" y="-645" />
              <mxPoint x="3025" y="-645" />
              <mxPoint x="3025" y="1350" />
            </Array>
            <mxPoint x="2500" y="-600" as="sourcePoint" />
            <mxPoint x="2425" y="1350" as="targetPoint" />
          </mxGeometry>
        </mxCell>
        <mxCell id="Qk3WT5OZLYkF9n8luIL4-99" value="" style="curved=0;startArrow=diamondThin;startSize=14;startFill=0;endArrow=none;exitX=0.08;exitY=1.237;entryX=1.025;entryY=0.103;rounded=0;labelBackgroundColor=none;fontColor=default;entryDx=0;entryDy=0;entryPerimeter=0;exitDx=0;exitDy=0;exitPerimeter=0;" edge="1" parent="1" source="Qk3WT5OZLYkF9n8luIL4-75" target="Qk3WT5OZLYkF9n8luIL4-43">
          <mxGeometry relative="1" as="geometry">
            <Array as="points">
              <mxPoint x="1740" y="539" />
            </Array>
          </mxGeometry>
        </mxCell>
        <mxCell id="Qk3WT5OZLYkF9n8luIL4-100" value="" style="curved=0;dashed=1;startArrow=none;endArrow=none;entryX=1.05;entryY=0.091;rounded=0;labelBackgroundColor=none;fontColor=default;exitX=0.911;exitY=1.051;exitDx=0;exitDy=0;exitPerimeter=0;entryDx=0;entryDy=0;entryPerimeter=0;" edge="1" parent="1" source="Qk3WT5OZLYkF9n8luIL4-75" target="Qk3WT5OZLYkF9n8luIL4-27">
          <mxGeometry relative="1" as="geometry">
            <Array as="points">
              <mxPoint x="2560" y="-255" />
              <mxPoint x="2560" y="239" />
            </Array>
            <mxPoint x="2566" y="-442" as="sourcePoint" />
          </mxGeometry>
        </mxCell>
        <mxCell id="Qk3WT5OZLYkF9n8luIL4-101" value="" style="curved=0;startArrow=diamondThin;startSize=14;startFill=0;endArrow=none;rounded=0;labelBackgroundColor=none;fontColor=default;entryX=1;entryY=0.5;entryDx=0;entryDy=0;" edge="1" parent="1" target="Qk3WT5OZLYkF9n8luIL4-4">
          <mxGeometry relative="1" as="geometry">
            <Array as="points">
              <mxPoint x="2695" y="1095" />
              <mxPoint x="2695" y="1260" />
            </Array>
            <mxPoint x="2695" y="825" as="sourcePoint" />
            <mxPoint x="2380" y="1260" as="targetPoint" />
          </mxGeometry>
        </mxCell>
        <mxCell id="Qk3WT5OZLYkF9n8luIL4-102" value="" style="curved=0;startArrow=diamondThin;startSize=14;startFill=0;endArrow=none;rounded=0;labelBackgroundColor=none;fontColor=default;exitX=0.954;exitY=1.114;exitDx=0;exitDy=0;exitPerimeter=0;entryX=1;entryY=1;entryDx=0;entryDy=0;entryPerimeter=0;" edge="1" parent="1" source="Qk3WT5OZLYkF9n8luIL4-82" target="Qk3WT5OZLYkF9n8luIL4-6">
          <mxGeometry relative="1" as="geometry">
            <Array as="points">
              <mxPoint x="2980" y="1305" />
            </Array>
            <mxPoint x="2935.1500000000005" y="-442.2307692307692" as="sourcePoint" />
            <mxPoint x="2410" y="1302" as="targetPoint" />
          </mxGeometry>
        </mxCell>
        <mxCell id="Qk3WT5OZLYkF9n8luIL4-30" value="TaskControler" style="swimlane;fontStyle=1;align=center;verticalAlign=top;childLayout=stackLayout;horizontal=1;startSize=23.6;horizontalStack=0;resizeParent=1;resizeParentMax=0;resizeLast=0;collapsible=0;marginBottom=0;rounded=0;labelBackgroundColor=none;" vertex="1" parent="1">
          <mxGeometry x="1970" y="525.0029644431902" width="851" height="295.6" as="geometry" />
        </mxCell>
        <mxCell id="Qk3WT5OZLYkF9n8luIL4-31" style="line;strokeWidth=1;fillColor=none;align=left;verticalAlign=middle;spacingTop=-1;spacingLeft=3;spacingRight=3;rotatable=0;labelPosition=right;points=[];portConstraint=eastwest;rounded=0;labelBackgroundColor=none;" vertex="1" parent="Qk3WT5OZLYkF9n8luIL4-30">
          <mxGeometry y="23.6" width="851" height="8" as="geometry" />
        </mxCell>
        <mxCell id="Qk3WT5OZLYkF9n8luIL4-32" value="TaskControler(PositionControler *positionControler, DriveControler *driveControler, ValueConverter *valueConverter)" style="text;strokeColor=none;fillColor=none;align=left;verticalAlign=top;spacingLeft=4;spacingRight=4;overflow=hidden;rotatable=0;points=[[0,0.5],[1,0.5]];portConstraint=eastwest;rounded=0;labelBackgroundColor=none;" vertex="1" parent="Qk3WT5OZLYkF9n8luIL4-30">
          <mxGeometry y="31.6" width="851" height="24" as="geometry" />
        </mxCell>
        <mxCell id="Qk3WT5OZLYkF9n8luIL4-33" value="+void Update()" style="text;strokeColor=none;fillColor=none;align=left;verticalAlign=top;spacingLeft=4;spacingRight=4;overflow=hidden;rotatable=0;points=[[0,0.5],[1,0.5]];portConstraint=eastwest;rounded=0;labelBackgroundColor=none;" vertex="1" parent="Qk3WT5OZLYkF9n8luIL4-30">
          <mxGeometry y="55.6" width="851" height="24" as="geometry" />
        </mxCell>
        <mxCell id="Qk3WT5OZLYkF9n8luIL4-34" value="+void NextTask()" style="text;strokeColor=none;fillColor=none;align=left;verticalAlign=top;spacingLeft=4;spacingRight=4;overflow=hidden;rotatable=0;points=[[0,0.5],[1,0.5]];portConstraint=eastwest;rounded=0;labelBackgroundColor=none;" vertex="1" parent="Qk3WT5OZLYkF9n8luIL4-30">
          <mxGeometry y="79.6" width="851" height="24" as="geometry" />
        </mxCell>
        <mxCell id="Qk3WT5OZLYkF9n8luIL4-35" value="+BasicTask *GetCurrentTask()" style="text;strokeColor=none;fillColor=none;align=left;verticalAlign=top;spacingLeft=4;spacingRight=4;overflow=hidden;rotatable=0;points=[[0,0.5],[1,0.5]];portConstraint=eastwest;rounded=0;labelBackgroundColor=none;" vertex="1" parent="Qk3WT5OZLYkF9n8luIL4-30">
          <mxGeometry y="103.6" width="851" height="24" as="geometry" />
        </mxCell>
        <mxCell id="Qk3WT5OZLYkF9n8luIL4-36" value="+void AddTask(BasicTask *next_task)" style="text;strokeColor=none;fillColor=none;align=left;verticalAlign=top;spacingLeft=4;spacingRight=4;overflow=hidden;rotatable=0;points=[[0,0.5],[1,0.5]];portConstraint=eastwest;rounded=0;labelBackgroundColor=none;" vertex="1" parent="Qk3WT5OZLYkF9n8luIL4-30">
          <mxGeometry y="127.6" width="851" height="24" as="geometry" />
        </mxCell>
        <mxCell id="Qk3WT5OZLYkF9n8luIL4-37" value="+int GetTaskId()" style="text;strokeColor=none;fillColor=none;align=left;verticalAlign=top;spacingLeft=4;spacingRight=4;overflow=hidden;rotatable=0;points=[[0,0.5],[1,0.5]];portConstraint=eastwest;rounded=0;labelBackgroundColor=none;" vertex="1" parent="Qk3WT5OZLYkF9n8luIL4-30">
          <mxGeometry y="151.6" width="851" height="24" as="geometry" />
        </mxCell>
        <mxCell id="Qk3WT5OZLYkF9n8luIL4-38" value="+int GetNumberOfTask()" style="text;strokeColor=none;fillColor=none;align=left;verticalAlign=top;spacingLeft=4;spacingRight=4;overflow=hidden;rotatable=0;points=[[0,0.5],[1,0.5]];portConstraint=eastwest;rounded=0;labelBackgroundColor=none;" vertex="1" parent="Qk3WT5OZLYkF9n8luIL4-30">
          <mxGeometry y="175.6" width="851" height="24" as="geometry" />
        </mxCell>
        <mxCell id="Qk3WT5OZLYkF9n8luIL4-39" value="+void Start()" style="text;strokeColor=none;fillColor=none;align=left;verticalAlign=top;spacingLeft=4;spacingRight=4;overflow=hidden;rotatable=0;points=[[0,0.5],[1,0.5]];portConstraint=eastwest;rounded=0;labelBackgroundColor=none;" vertex="1" parent="Qk3WT5OZLYkF9n8luIL4-30">
          <mxGeometry y="199.6" width="851" height="24" as="geometry" />
        </mxCell>
        <mxCell id="Qk3WT5OZLYkF9n8luIL4-40" value="+void Stop()" style="text;strokeColor=none;fillColor=none;align=left;verticalAlign=top;spacingLeft=4;spacingRight=4;overflow=hidden;rotatable=0;points=[[0,0.5],[1,0.5]];portConstraint=eastwest;rounded=0;labelBackgroundColor=none;" vertex="1" parent="Qk3WT5OZLYkF9n8luIL4-30">
          <mxGeometry y="223.6" width="851" height="24" as="geometry" />
        </mxCell>
        <mxCell id="Qk3WT5OZLYkF9n8luIL4-41" value="+void SetAutoMode(bool auto_mode)" style="text;strokeColor=none;fillColor=none;align=left;verticalAlign=top;spacingLeft=4;spacingRight=4;overflow=hidden;rotatable=0;points=[[0,0.5],[1,0.5]];portConstraint=eastwest;rounded=0;labelBackgroundColor=none;" vertex="1" parent="Qk3WT5OZLYkF9n8luIL4-30">
          <mxGeometry y="247.6" width="851" height="24" as="geometry" />
        </mxCell>
        <mxCell id="Qk3WT5OZLYkF9n8luIL4-42" value="+void Reset()" style="text;strokeColor=none;fillColor=none;align=left;verticalAlign=top;spacingLeft=4;spacingRight=4;overflow=hidden;rotatable=0;points=[[0,0.5],[1,0.5]];portConstraint=eastwest;rounded=0;labelBackgroundColor=none;" vertex="1" parent="Qk3WT5OZLYkF9n8luIL4-30">
          <mxGeometry y="271.6" width="851" height="24" as="geometry" />
        </mxCell>
      </root>
    </mxGraphModel>
  </diagram>
</mxfile>
